<?xml version="1.0" encoding="utf-8"?>
<!-- Generator: Adobe Illustrator 18.1.0, SVG Export Plug-In . SVG Version: 6.00 Build 0)  -->
<svg version="1.1" xmlns="http://www.w3.org/2000/svg" xmlns:xlink="http://www.w3.org/1999/xlink" x="0px" y="0px"
	 viewBox="0 0 16 16" enable-background="new 0 0 16 16" xml:space="preserve">
<g id="Apple" >
	<g >
		<rect x="10" y="15" fill="#54090E" width="1" height="1"/>
		<rect x="9" y="15" fill="#54090E" width="1" height="1"/>
		<rect x="6" y="15" fill="#54090E" width="1" height="1"/>
		<rect x="5" y="15" fill="#54090E" width="1" height="1"/>
		<rect x="11" y="14" fill="#54090E" width="1" height="1"/>
		<rect x="10" y="14" fill="#B4131E" width="1" height="1"/>
		<rect x="9" y="14" fill="#B4131E" width="1" height="1"/>
		<rect x="8" y="14" fill="#351705" width="1" height="1"/>
		<rect x="7" y="14" fill="#351705" width="1" height="1"/>
		<rect x="6" y="14" fill="#B4131E" width="1" height="1"/>
		<rect x="5" y="14" fill="#B4131E" width="1" height="1"/>
		<rect x="4" y="14" fill="#54090E" width="1" height="1"/>
		<rect x="12" y="13" fill="#54090E" width="1" height="1"/>
		<rect x="11" y="13" fill="#B4131E" width="1" height="1"/>
		<rect x="10" y="13" fill="#B4131E" width="1" height="1"/>
		<rect x="9" y="13" fill="#C51421" width="1" height="1"/>
		<rect x="8" y="13" fill="#DD1725" width="1" height="1"/>
		<rect x="7" y="13" fill="#DD1725" width="1" height="1"/>
		<rect x="6" y="13" fill="#DD1725" width="1" height="1"/>
		<rect x="5" y="13" fill="#B4131E" width="1" height="1"/>
		<rect x="4" y="13" fill="#B4131E" width="1" height="1"/>
		<rect x="3" y="13" fill="#9E111A" width="1" height="1"/>
		<rect x="12" y="12" fill="#54090E" width="1" height="1"/>
		<rect x="11" y="12" fill="#B4131E" width="1" height="1"/>
		<rect x="10" y="12" fill="#C51421" width="1" height="1"/>
		<rect x="9" y="12" fill="#DD1725" width="1" height="1"/>
		<rect x="8" y="12" fill="#F01928" width="1" height="1"/>
		<rect x="7" y="12" fill="#F01928" width="1" height="1"/>
		<rect x="6" y="12" fill="#FF1C2B" width="1" height="1"/>
		<rect x="5" y="12" fill="#FF1C2B" width="1" height="1"/>
		<rect x="4" y="12" fill="#DD1725" width="1" height="1"/>
		<rect x="3" y="12" fill="#9E111A" width="1" height="1"/>
		<rect x="13" y="11" fill="#54090E" width="1" height="1"/>
		<rect x="12" y="11" fill="#B4131E" width="1" height="1"/>
		<rect x="11" y="11" fill="#C51421" width="1" height="1"/>
		<rect x="10" y="11" fill="#DD1725" width="1" height="1"/>
		<rect x="9" y="11" fill="#F01928" width="1" height="1"/>
		<rect x="8" y="11" fill="#FF1C2B" width="1" height="1"/>
		<rect x="7" y="11" fill="#FF1C2B" width="1" height="1"/>
		<rect x="6" y="11" fill="#FF1C2B" width="1" height="1"/>
		<rect x="5" y="11" fill="#FF1C2B" width="1" height="1"/>
		<rect x="4" y="11" fill="#FF1C2B" width="1" height="1"/>
		<rect x="3" y="11" fill="#FF1C2B" width="1" height="1"/>
		<rect x="2" y="11" fill="#B2131E" width="1" height="1"/>
		<rect x="13" y="10" fill="#54090E" width="1" height="1"/>
		<rect x="12" y="10" fill="#B4131E" width="1" height="1"/>
		<rect x="11" y="10" fill="#DD1725" width="1" height="1"/>
		<rect x="10" y="10" fill="#F01928" width="1" height="1"/>
		<rect x="9" y="10" fill="#FF1C2B" width="1" height="1"/>
		<rect x="8" y="10" fill="#FF1C2B" width="1" height="1"/>
		<rect x="7" y="10" fill="#FF1C2B" width="1" height="1"/>
		<rect x="6" y="10" fill="#FF1C2B" width="1" height="1"/>
		<rect x="5" y="10" fill="#FF1C2B" width="1" height="1"/>
		<rect x="4" y="10" fill="#FF1C2B" width="1" height="1"/>
		<rect x="3" y="10" fill="#FF1C2B" width="1" height="1"/>
		<rect x="2" y="10" fill="#D31623" width="1" height="1"/>
		<rect x="13" y="9" fill="#54090E" width="1" height="1"/>
		<rect x="12" y="9" fill="#B4131E" width="1" height="1"/>
		<rect x="11" y="9" fill="#DD1725" width="1" height="1"/>
		<rect x="10" y="9" fill="#F01928" width="1" height="1"/>
		<rect x="9" y="9" fill="#FF1C2B" width="1" height="1"/>
		<rect x="8" y="9" fill="#FF1C2B" width="1" height="1"/>
		<rect x="7" y="9" fill="#FF1C2B" width="1" height="1"/>
		<rect x="6" y="9" fill="#FF1C2B" width="1" height="1"/>
		<rect x="5" y="9" fill="#FF969D" width="1" height="1"/>
		<rect x="4" y="9" fill="#FF535E" width="1" height="1"/>
		<rect x="3" y="9" fill="#FF1C2B" width="1" height="1"/>
		<rect x="2" y="9" fill="#D31623" width="1" height="1"/>
		<rect x="13" y="8" fill="#7D0D14" width="1" height="1"/>
		<rect x="12" y="8" fill="#B4131E" width="1" height="1"/>
		<rect x="11" y="8" fill="#DD1725" width="1" height="1"/>
		<rect x="10" y="8" fill="#FF1C2B" width="1" height="1"/>
		<rect x="9" y="8" fill="#FF1C2B" width="1" height="1"/>
		<rect x="8" y="8" fill="#FF1C2B" width="1" height="1"/>
		<rect x="7" y="8" fill="#FF1C2B" width="1" height="1"/>
		<rect x="6" y="8" fill="#FF5E69" width="1" height="1"/>
		<rect x="5" y="8" fill="#FF969D" width="1" height="1"/>
		<rect x="4" y="8" fill="#FFA0A6" width="1" height="1"/>
		<rect x="3" y="8" fill="#F01928" width="1" height="1"/>
		<rect x="2" y="8" fill="#D31623" width="1" height="1"/>
		<rect x="12" y="7" fill="#7D0D14" width="1" height="1"/>
		<rect x="11" y="7" fill="#B4131E" width="1" height="1"/>
		<rect x="10" y="7" fill="#FF1C2B" width="1" height="1"/>
		<rect x="9" y="7" fill="#FF1C2B" width="1" height="1"/>
		<rect x="8" y="7" fill="#FF1C2B" width="1" height="1"/>
		<rect x="7" y="7" fill="#FF5E69" width="1" height="1"/>
		<rect x="6" y="7" fill="#FF969D" width="1" height="1"/>
		<rect x="5" y="7" fill="#FFAAAF" width="1" height="1"/>
		<rect x="4" y="7" fill="#FF1C2B" width="1" height="1"/>
		<rect x="3" y="7" fill="#D31623" width="1" height="1"/>
		<rect x="12" y="6" fill="#7D0D14" width="1" height="1"/>
		<rect x="11" y="6" fill="#B4131E" width="1" height="1"/>
		<rect x="10" y="6" fill="#B4131E" width="1" height="1"/>
		<rect x="9" y="6" fill="#FF1C2B" width="1" height="1"/>
		<rect x="8" y="6" fill="#B4131E" width="1" height="1"/>
		<rect x="7" y="6" fill="#FF1C2B" width="1" height="1"/>
		<rect x="6" y="6" fill="#FF1C2B" width="1" height="1"/>
		<rect x="5" y="6" fill="#FF1C2B" width="1" height="1"/>
		<rect x="4" y="6" fill="#F01928" width="1" height="1"/>
		<rect x="3" y="6" fill="#D31623" width="1" height="1"/>
		<rect x="11" y="5" fill="#7D0D14" width="1" height="1"/>
		<rect x="10" y="5" fill="#7D0D14" width="1" height="1"/>
		<rect x="9" y="5" fill="#B4131E" width="1" height="1"/>
		<rect x="8" y="5" fill="#542409" width="1" height="1"/>
		<rect x="7" y="5" fill="#542409" width="1" height="1"/>
		<rect x="6" y="5" fill="#F01928" width="1" height="1"/>
		<rect x="5" y="5" fill="#D31623" width="1" height="1"/>
		<rect x="4" y="5" fill="#D31623" width="1" height="1"/>
		<rect x="9" y="4" fill="#441E07" width="1" height="1"/>
		<rect x="8" y="4" fill="#301504" width="1" height="1"/>
		<rect x="7" y="4" fill="#B2131E" width="1" height="1"/>
		<rect x="6" y="4" fill="#D31623" width="1" height="1"/>
		<rect x="8" y="3" fill="#77340D" width="1" height="1"/>
		<rect x="9" y="2" fill="#441E07" width="1" height="1"/>
		<rect x="8" y="2" fill="#77340D" width="1" height="1"/>
		<rect x="9" y="1" fill="#77340D" width="1" height="1"/>
	</g>
</g>
</svg>