<?xml version="1.0" encoding="utf-8"?>
<!-- Generator: Adobe Illustrator 18.1.0, SVG Export Plug-In . SVG Version: 6.00 Build 0)  -->
<svg version="1.1" xmlns="http://www.w3.org/2000/svg" xmlns:xlink="http://www.w3.org/1999/xlink" x="0px" y="0px"
	 viewBox="0 0 16 16" enable-background="new 0 0 16 16" xml:space="preserve">

<g id="Layer_5" >
	<g display="inline">
		<rect x="8" y="14" fill="#2A160D" width="1" height="1"/>
		<rect x="7" y="14" fill="#2A160D" width="1" height="1"/>
		<rect x="6" y="14" fill="#2A160D" width="1" height="1"/>
		<rect x="5" y="14" fill="#2A160D" width="1" height="1"/>
		<rect x="10" y="13" fill="#2A160D" width="1" height="1"/>
		<rect x="9" y="13" fill="#2A160D" width="1" height="1"/>
		<rect x="8" y="13" fill="#3F2116" width="1" height="1"/>
		<rect x="7" y="13" fill="#3F2116" width="1" height="1"/>
		<rect x="6" y="13" fill="#3F2116" width="1" height="1"/>
		<rect x="5" y="13" fill="#3F2116" width="1" height="1"/>
		<rect x="4" y="13" fill="#3F2116" width="1" height="1"/>
		<rect x="3" y="13" fill="#2A160D" width="1" height="1"/>
		<rect x="11" y="12" fill="#26140B" width="1" height="1"/>
		<rect x="10" y="12" fill="#3F2116" width="1" height="1"/>
		<rect x="9" y="12" fill="#3F2116" width="1" height="1"/>
		<rect x="8" y="12" fill="#90573F" width="1" height="1"/>
		<rect x="7" y="12" fill="#673728" width="1" height="1"/>
		<rect x="6" y="12" fill="#6B3A2A" width="1" height="1"/>
		<rect x="5" y="12" fill="#90573F" width="1" height="1"/>
		<rect x="4" y="12" fill="#522F1F" width="1" height="1"/>
		<rect x="3" y="12" fill="#3F2116" width="1" height="1"/>
		<rect x="12" y="11" fill="#2A160D" width="1" height="1"/>
		<rect x="11" y="11" fill="#3F2116" width="1" height="1"/>
		<rect x="10" y="11" fill="#673627" width="1" height="1"/>
		<rect x="9" y="11" fill="#6D3C2B" width="1" height="1"/>
		<rect x="8" y="11" fill="#8D543D" width="1" height="1"/>
		<rect x="7" y="11" fill="#8C533C" width="1" height="1"/>
		<rect x="6" y="11" fill="#693829" width="1" height="1"/>
		<rect x="5" y="11" fill="#854B3C" width="1" height="1"/>
		<rect x="4" y="11" fill="#975B42" width="1" height="1"/>
		<rect x="3" y="11" fill="#90573F" width="1" height="1"/>
		<rect x="2" y="11" fill="#6B3A2A" width="1" height="1"/>
		<rect x="13" y="10" fill="#2A160D" width="1" height="1"/>
		<rect x="12" y="10" fill="#3F2116" width="1" height="1"/>
		<rect x="11" y="10" fill="#90573F" width="1" height="1"/>
		<rect x="10" y="10" fill="#8C533C" width="1" height="1"/>
		<rect x="9" y="10" fill="#723F2E" width="1" height="1"/>
		<rect x="8" y="10" fill="#82483A" width="1" height="1"/>
		<rect x="7" y="10" fill="#7F4A35" width="1" height="1"/>
		<rect x="6" y="10" fill="#8E553E" width="1" height="1"/>
		<rect x="5" y="10" fill="#6F3D2C" width="1" height="1"/>
		<rect x="4" y="10" fill="#7A3E2D" width="1" height="1"/>
		<rect x="3" y="10" fill="#874B37" width="1" height="1"/>
		<rect x="2" y="10" fill="#6B3A2A" width="1" height="1"/>
		<rect x="13" y="9" fill="#3F2116" width="1" height="1"/>
		<rect x="12" y="9" fill="#683828" width="1" height="1"/>
		<rect x="11" y="9" fill="#6D3C2B" width="1" height="1"/>
		<rect x="10" y="9" fill="#9C6854" width="1" height="1"/>
		<rect x="9" y="9" fill="#9D6147" width="1" height="1"/>
		<rect x="8" y="9" fill="#8E523C" width="1" height="1"/>
		<rect x="7" y="9" fill="#824839" width="1" height="1"/>
		<rect x="6" y="9" fill="#723F2E" width="1" height="1"/>
		<rect x="5" y="9" fill="#9D6147" width="1" height="1"/>
		<rect x="4" y="9" fill="#8A4E39" width="1" height="1"/>
		<rect x="3" y="9" fill="#6B3A2A" width="1" height="1"/>
		<rect x="14" y="8" fill="#2A160D" width="1" height="1"/>
		<rect x="13" y="8" fill="#3F2116" width="1" height="1"/>
		<rect x="12" y="8" fill="#8E553E" width="1" height="1"/>
		<rect x="11" y="8" fill="#713F2D" width="1" height="1"/>
		<rect x="10" y="8" fill="#673728" width="1" height="1"/>
		<rect x="9" y="8" fill="#8C503A" width="1" height="1"/>
		<rect x="8" y="8" fill="#90573F" width="1" height="1"/>
		<rect x="7" y="8" fill="#985C43" width="1" height="1"/>
		<rect x="6" y="8" fill="#693829" width="1" height="1"/>
		<rect x="5" y="8" fill="#793E2D" width="1" height="1"/>
		<rect x="4" y="8" fill="#87503A" width="1" height="1"/>
		<rect x="3" y="8" fill="#6B3A2A" width="1" height="1"/>
		<rect x="14" y="7" fill="#2A160D" width="1" height="1"/>
		<rect x="13" y="7" fill="#90573F" width="1" height="1"/>
		<rect x="12" y="7" fill="#89513B" width="1" height="1"/>
		<rect x="11" y="7" fill="#9D6147" width="1" height="1"/>
		<rect x="10" y="7" fill="#824C37" width="1" height="1"/>
		<rect x="9" y="7" fill="#673728" width="1" height="1"/>
		<rect x="8" y="7" fill="#884F40" width="1" height="1"/>
		<rect x="7" y="7" fill="#90573F" width="1" height="1"/>
		<rect x="6" y="7" fill="#90573F" width="1" height="1"/>
		<rect x="5" y="7" fill="#6B3A2A" width="1" height="1"/>
		<rect x="4" y="7" fill="#6B3A2A" width="1" height="1"/>
		<rect x="14" y="6" fill="#3F2116" width="1" height="1"/>
		<rect x="13" y="6" fill="#90573F" width="1" height="1"/>
		<rect x="12" y="6" fill="#854B3C" width="1" height="1"/>
		<rect x="11" y="6" fill="#7C402F" width="1" height="1"/>
		<rect x="10" y="6" fill="#945941" width="1" height="1"/>
		<rect x="9" y="6" fill="#9A6551" width="1" height="1"/>
		<rect x="8" y="6" fill="#653526" width="1" height="1"/>
		<rect x="7" y="6" fill="#82483A" width="1" height="1"/>
		<rect x="6" y="6" fill="#6B3A2A" width="1" height="1"/>
		<rect x="14" y="5" fill="#3F2116" width="1" height="1"/>
		<rect x="13" y="5" fill="#90573F" width="1" height="1"/>
		<rect x="12" y="5" fill="#90573F" width="1" height="1"/>
		<rect x="11" y="5" fill="#723F2E" width="1" height="1"/>
		<rect x="10" y="5" fill="#793D2D" width="1" height="1"/>
		<rect x="9" y="5" fill="#8D5544" width="1" height="1"/>
		<rect x="8" y="5" fill="#7F4A35" width="1" height="1"/>
		<rect x="7" y="5" fill="#6B3A2A" width="1" height="1"/>
		<rect x="13" y="4" fill="#2A160D" width="1" height="1"/>
		<rect x="12" y="4" fill="#90573F" width="1" height="1"/>
		<rect x="11" y="4" fill="#A3705A" width="1" height="1"/>
		<rect x="10" y="4" fill="#804B36" width="1" height="1"/>
		<rect x="9" y="4" fill="#653527" width="1" height="1"/>
		<rect x="8" y="4" fill="#6B3A2A" width="1" height="1"/>
		<rect x="12" y="3" fill="#6B3A2A" width="1" height="1"/>
		<rect x="11" y="3" fill="#6B3A2A" width="1" height="1"/>
		<rect x="10" y="3" fill="#6B3A2A" width="1" height="1"/>
		<rect x="9" y="3" fill="#6B3A2A" width="1" height="1"/>
	</g>
</g>
</svg>