<?xml version="1.0" encoding="utf-8"?>
<!-- Generator: Adobe Illustrator 18.1.0, SVG Export Plug-In . SVG Version: 6.00 Build 0)  -->
<svg version="1.1" xmlns="http://www.w3.org/2000/svg" xmlns:xlink="http://www.w3.org/1999/xlink" x="0px" y="0px"
	 viewBox="0 0 16 16" enable-background="new 0 0 16 16" xml:space="preserve">
<g id="Layer_10">
	<g>
		<rect x="3" y="14" fill="#797870" width="1" height="1"/>
		<rect x="4" y="13" fill="#797870" width="1" height="1"/>
		<rect x="3" y="13" fill="#F5F3D6" width="1" height="1"/>
		<rect x="2" y="13" fill="#E4E2D2" width="1" height="1"/>
		<rect x="1" y="13" fill="#727877" width="1" height="1"/>
		<rect x="4" y="12" fill="#797870" width="1" height="1"/>
		<rect x="3" y="12" fill="#FCFBED" width="1" height="1"/>
		<rect x="2" y="12" fill="#FFFFE9" width="1" height="1"/>
		<rect x="1" y="12" fill="#E4E2D2" width="1" height="1"/>
		<rect x="5" y="11" fill="#797870" width="1" height="1"/>
		<rect x="4" y="11" fill="#FFFEEE" width="1" height="1"/>
		<rect x="3" y="11" fill="#EDEBCA" width="1" height="1"/>
		<rect x="2" y="11" fill="#FAF9DC" width="1" height="1"/>
		<rect x="6" y="10" fill="#797870" width="1" height="1"/>
		<rect x="5" y="10" fill="#FBFDE9" width="1" height="1"/>
		<rect x="4" y="10" fill="#EDEBCA" width="1" height="1"/>
		<rect x="7" y="9" fill="#797870" width="1" height="1"/>
		<rect x="6" y="9" fill="#FDFEE4" width="1" height="1"/>
		<rect x="5" y="9" fill="#EDEBCA" width="1" height="1"/>
		<rect x="8" y="8" fill="#797870" width="1" height="1"/>
		<rect x="7" y="8" fill="#FFFDE9" width="1" height="1"/>
		<rect x="6" y="8" fill="#EDEBCA" width="1" height="1"/>
		<rect x="9" y="7" fill="#797870" width="1" height="1"/>
		<rect x="8" y="7" fill="#FFFFEB" width="1" height="1"/>
		<rect x="7" y="7" fill="#EDEBCA" width="1" height="1"/>
		<rect x="10" y="6" fill="#797870" width="1" height="1"/>
		<rect x="9" y="6" fill="#FEFFE7" width="1" height="1"/>
		<rect x="8" y="6" fill="#EDEBCA" width="1" height="1"/>
		<rect x="11" y="5" fill="#797870" width="1" height="1"/>
		<rect x="10" y="5" fill="#FFFDE8" width="1" height="1"/>
		<rect x="9" y="5" fill="#EDEBCA" width="1" height="1"/>
		<rect x="13" y="4" fill="#797870" width="1" height="1"/>
		<rect x="12" y="4" fill="#797870" width="1" height="1"/>
		<rect x="11" y="4" fill="#F9F7E7" width="1" height="1"/>
		<rect x="10" y="4" fill="#EDEBCA" width="1" height="1"/>
		<rect x="14" y="3" fill="#797870" width="1" height="1"/>
		<rect x="13" y="3" fill="#F6F3D8" width="1" height="1"/>
		<rect x="12" y="3" fill="#F1F6D5" width="1" height="1"/>
		<rect x="11" y="3" fill="#EDEBCA" width="1" height="1"/>
		<rect x="13" y="2" fill="#E4E2D2" width="1" height="1"/>
		<rect x="12" y="2" fill="#F5F5D7" width="1" height="1"/>
		<rect x="11" y="2" fill="#FFFEF0" width="1" height="1"/>
		<rect x="13" y="1" fill="#777869" width="1" height="1"/>
		<rect x="12" y="1" fill="#E4E2D2" width="1" height="1"/>
	</g>
</g>
     </svg>