<?xml version="1.0" encoding="utf-8"?>
<!-- Generator: Adobe Illustrator 18.1.0, SVG Export Plug-In . SVG Version: 6.00 Build 0)  -->
<svg version="1.1" xmlns="http://www.w3.org/2000/svg" xmlns:xlink="http://www.w3.org/1999/xlink" x="0px" y="0px"
	 viewBox="0 0 16 16" enable-background="new 0 0 16 16" xml:space="preserve">
<g id="diamond" > 
	<g>
		<rect x="10" y="14" fill="#0C3730" width="1" height="1"/>
		<rect x="9" y="14" fill="#0C3730" width="1" height="1"/>
		<rect x="8" y="14" fill="#0C3730" width="1" height="1"/>
		<rect x="7" y="14" fill="#0C3730" width="1" height="1"/>
		<rect x="6" y="14" fill="#0C3730" width="1" height="1"/>
		<rect x="5" y="14" fill="#0C3730" width="1" height="1"/>
		<rect x="11" y="13" fill="#0C3730" width="1" height="1"/>
		<rect x="10" y="13" fill="#209581" width="1" height="1"/>
		<rect x="9" y="13" fill="#2CCDB1" width="1" height="1"/>
		<rect x="8" y="13" fill="#2CCDB1" width="1" height="1"/>
		<rect x="7" y="13" fill="#2CCDB1" width="1" height="1"/>
		<rect x="6" y="13" fill="#2CCDB1" width="1" height="1"/>
		<rect x="5" y="13" fill="#209581" width="1" height="1"/>
		<rect x="4" y="13" fill="#0C3730" width="1" height="1"/>
		<rect x="12" y="12" fill="#0C3730" width="1" height="1"/>
		<rect x="11" y="12" fill="#209581" width="1" height="1"/>
		<rect x="10" y="12" fill="#1B7B6B" width="1" height="1"/>
		<rect x="9" y="12" fill="#2CCDB1" width="1" height="1"/>
		<rect x="8" y="12" fill="#2CCDB1" width="1" height="1"/>
		<rect x="7" y="12" fill="#2CCDB1" width="1" height="1"/>
		<rect x="6" y="12" fill="#2CCDB1" width="1" height="1"/>
		<rect x="5" y="12" fill="#1B7B6B" width="1" height="1"/>
		<rect x="4" y="12" fill="#30DBBD" width="1" height="1"/>
		<rect x="3" y="12" fill="#0C3730" width="1" height="1"/>
		<rect x="12" y="11" fill="#0C3730" width="1" height="1"/>
		<rect x="11" y="11" fill="#2CCDB1" width="1" height="1"/>
		<rect x="10" y="11" fill="#1B7B6B" width="1" height="1"/>
		<rect x="9" y="11" fill="#2CCDB1" width="1" height="1"/>
		<rect x="8" y="11" fill="#2CCDB1" width="1" height="1"/>
		<rect x="7" y="11" fill="#2CCDB1" width="1" height="1"/>
		<rect x="6" y="11" fill="#2CCDB1" width="1" height="1"/>
		<rect x="5" y="11" fill="#1B7B6B" width="1" height="1"/>
		<rect x="4" y="11" fill="#4AEDD1" width="1" height="1"/>
		<rect x="3" y="11" fill="#0C3730" width="1" height="1"/>
		<rect x="13" y="10" fill="#0C3730" width="1" height="1"/>
		<rect x="12" y="10" fill="#209581" width="1" height="1"/>
		<rect x="11" y="10" fill="#2CCDB1" width="1" height="1"/>
		<rect x="10" y="10" fill="#2CCDB1" width="1" height="1"/>
		<rect x="9" y="10" fill="#209581" width="1" height="1"/>
		<rect x="8" y="10" fill="#209581" width="1" height="1"/>
		<rect x="7" y="10" fill="#209581" width="1" height="1"/>
		<rect x="6" y="10" fill="#209581" width="1" height="1"/>
		<rect x="5" y="10" fill="#4AEDD1" width="1" height="1"/>
		<rect x="4" y="10" fill="#4AEDD1" width="1" height="1"/>
		<rect x="3" y="10" fill="#FFFFFF" width="1" height="1"/>
		<rect x="2" y="10" fill="#0C3730" width="1" height="1"/>
		<rect x="13" y="9" fill="#0C3730" width="1" height="1"/>
		<rect x="12" y="9" fill="#1B7B6B" width="1" height="1"/>
		<rect x="11" y="9" fill="#1B7B6B" width="1" height="1"/>
		<rect x="10" y="9" fill="#209581" width="1" height="1"/>
		<rect x="9" y="9" fill="#8CF4E2" width="1" height="1"/>
		<rect x="8" y="9" fill="#8CF4E2" width="1" height="1"/>
		<rect x="7" y="9" fill="#8CF4E2" width="1" height="1"/>
		<rect x="6" y="9" fill="#8CF4E2" width="1" height="1"/>
		<rect x="5" y="9" fill="#2CCDB1" width="1" height="1"/>
		<rect x="4" y="9" fill="#D1FAF3" width="1" height="1"/>
		<rect x="3" y="9" fill="#FFFFFF" width="1" height="1"/>
		<rect x="2" y="9" fill="#0C3730" width="1" height="1"/>
		<rect x="13" y="8" fill="#0C3730" width="1" height="1"/>
		<rect x="12" y="8" fill="#30DBBD" width="1" height="1"/>
		<rect x="11" y="8" fill="#4AEDD1" width="1" height="1"/>
		<rect x="10" y="8" fill="#209581" width="1" height="1"/>
		<rect x="9" y="8" fill="#8CF4E2" width="1" height="1"/>
		<rect x="8" y="8" fill="#8CF4E2" width="1" height="1"/>
		<rect x="7" y="8" fill="#8CF4E2" width="1" height="1"/>
		<rect x="6" y="8" fill="#8CF4E2" width="1" height="1"/>
		<rect x="5" y="8" fill="#D1FAF3" width="1" height="1"/>
		<rect x="4" y="8" fill="#A2F6E7" width="1" height="1"/>
		<rect x="3" y="8" fill="#FFFFFF" width="1" height="1"/>
		<rect x="2" y="8" fill="#0C3730" width="1" height="1"/>
		<rect x="12" y="7" fill="#0C3730" width="1" height="1"/>
		<rect x="11" y="7" fill="#4AEDD1" width="1" height="1"/>
		<rect x="10" y="7" fill="#209581" width="1" height="1"/>
		<rect x="9" y="7" fill="#8CF4E2" width="1" height="1"/>
		<rect x="8" y="7" fill="#8CF4E2" width="1" height="1"/>
		<rect x="7" y="7" fill="#8CF4E2" width="1" height="1"/>
		<rect x="6" y="7" fill="#8CF4E2" width="1" height="1"/>
		<rect x="5" y="7" fill="#FFFFFF" width="1" height="1"/>
		<rect x="4" y="7" fill="#A2F6E7" width="1" height="1"/>
		<rect x="3" y="7" fill="#FFFFFF" width="1" height="1"/>
		<rect x="2" y="7" fill="#0C3730" width="1" height="1"/>
		<rect x="12" y="6" fill="#0C3730" width="1" height="1"/>
		<rect x="11" y="6" fill="#30DBBD" width="1" height="1"/>
		<rect x="10" y="6" fill="#4AEDD1" width="1" height="1"/>
		<rect x="9" y="6" fill="#D1FAF3" width="1" height="1"/>
		<rect x="8" y="6" fill="#D1FAF3" width="1" height="1"/>
		<rect x="7" y="6" fill="#D1FAF3" width="1" height="1"/>
		<rect x="6" y="6" fill="#FFFFFF" width="1" height="1"/>
		<rect x="5" y="6" fill="#A2F6E7" width="1" height="1"/>
		<rect x="4" y="6" fill="#FFFFFF" width="1" height="1"/>
		<rect x="3" y="6" fill="#0C3730" width="1" height="1"/>
		<rect x="11" y="5" fill="#0C3730" width="1" height="1"/>
		<rect x="10" y="5" fill="#4AEDD1" width="1" height="1"/>
		<rect x="9" y="5" fill="#4AEDD1" width="1" height="1"/>
		<rect x="8" y="5" fill="#FFFFFF" width="1" height="1"/>
		<rect x="7" y="5" fill="#A2F6E7" width="1" height="1"/>
		<rect x="6" y="5" fill="#A2F6E7" width="1" height="1"/>
		<rect x="5" y="5" fill="#D1FAF3" width="1" height="1"/>
		<rect x="4" y="5" fill="#FFFFFF" width="1" height="1"/>
		<rect x="3" y="5" fill="#0C3730" width="1" height="1"/>
		<rect x="11" y="4" fill="#0C3730" width="1" height="1"/>
		<rect x="10" y="4" fill="#30DBBD" width="1" height="1"/>
		<rect x="9" y="4" fill="#D1FAF3" width="1" height="1"/>
		<rect x="8" y="4" fill="#A2F6E7" width="1" height="1"/>
		<rect x="7" y="4" fill="#A2F6E7" width="1" height="1"/>
		<rect x="6" y="4" fill="#A2F6E7" width="1" height="1"/>
		<rect x="5" y="4" fill="#FFFFFF" width="1" height="1"/>
		<rect x="4" y="4" fill="#0C3730" width="1" height="1"/>
		<rect x="10" y="3" fill="#0C3730" width="1" height="1"/>
		<rect x="9" y="3" fill="#FFFFFF" width="1" height="1"/>
		<rect x="8" y="3" fill="#FFFFFF" width="1" height="1"/>
		<rect x="7" y="3" fill="#FFFFFF" width="1" height="1"/>
		<rect x="6" y="3" fill="#FFFFFF" width="1" height="1"/>
		<rect x="5" y="3" fill="#0C3730" width="1" height="1"/>
		<rect x="9" y="2" fill="#0C3730" width="1" height="1"/>
		<rect x="8" y="2" fill="#0C3730" width="1" height="1"/>
		<rect x="7" y="2" fill="#0C3730" width="1" height="1"/>
		<rect x="6" y="2" fill="#0C3730" width="1" height="1"/>
	</g>
</g>
     </svg>